<?xml version="1.0" encoding="utf-8"?>
<!-- Generator: Adobe Illustrator 25.1.0, SVG Export Plug-In . SVG Version: 6.00 Build 0)  -->
<svg version="1.1" id="レイヤー_1" xmlns="http://www.w3.org/2000/svg" xmlns:xlink="http://www.w3.org/1999/xlink" x="0px"
	 y="0px" viewBox="0 0 26.4 35.2" style="enable-background:new 0 0 26.4 35.2;" xml:space="preserve" widht="26" height="35">
<style type="text/css">
	.st0{fill:url(#SVGID_1_);}
	.st1{fill:#E32113;stroke:#FFFFFF;stroke-width:0.976;stroke-miterlimit:9.76;}
	.st2{fill:#FFFFFF;}
</style>
<radialGradient id="SVGID_1_" cx="5.8129" cy="31.1026" r="4.2767" gradientTransform="matrix(1.5436 0.7348 -0.7884 1.656 29.6942 -28.4524)" gradientUnits="userSpaceOnUse">
	<stop  offset="0" style="stop-color:#000000;stop-opacity:0.4"/>
	<stop  offset="1" style="stop-color:#000000;stop-opacity:0"/>
</radialGradient>
<path class="st0" d="M21.1,30.5c-1.9,4-6.4,5.8-10.2,4c-3.7-1.8-5.2-6.4-3.3-10.4s6.4-5.8,10.2-4C21.5,21.9,23,26.6,21.1,30.5z"/>
<path class="st1" d="M13.2,0.5C9.6,0.4,6.2,1.9,3.8,4.6c-4.3,4.9-4.4,12.1-0.3,17.2C4.6,23.2,5.8,24.6,7,26c1.7,2.1,3.4,4.2,5.1,6.2
	c0.3,0.6,1.1,0.8,1.7,0.5c0.2-0.1,0.4-0.3,0.5-0.5c0.1-0.1,0.2-0.2,0.3-0.4c2.6-3.2,5.3-6.5,8-9.7c1.9-2.2,3-4.9,3.3-7.7
	c0.7-7-4.3-13.2-11.3-13.9C14.1,0.5,13.7,0.5,13.2,0.5z"/>
<path class="st2" d="M17.4,9.1c0,0,0.1,0.1,0.1,0.1v1.3c0,0.1,0,0.1-0.1,0.1c0,0-0.1,0.1-0.1,0.1h-3.1c0,0-0.1,0-0.1,0.1
	c0,0,0,0,0,0v9.8c0,0.1-0.1,0.2-0.2,0.2h-1.5c-0.1,0-0.2-0.1-0.2-0.2v-9.8c0,0,0-0.1-0.1-0.1c0,0,0,0,0,0H9.1c-0.1,0-0.1,0-0.2,0
	c0,0-0.1-0.1-0.1-0.1V9.3c0-0.1,0-0.1,0.1-0.1c0,0,0.1-0.1,0.1-0.1h8.2C17.3,9.1,17.4,9.1,17.4,9.1z"/>
</svg>
